<?xml version="1.0" encoding="utf-8"?>
<!-- Generator: Adobe Illustrator 19.0.0, SVG Export Plug-In . SVG Version: 6.00 Build 0)  -->
<svg version="1.1" id="Layer_1" xmlns="http://www.w3.org/2000/svg" xmlns:xlink="http://www.w3.org/1999/xlink" x="0px" y="0px"
	 viewBox="0 0 150 150" style="enable-background:new 0 0 150 150;" xml:space="preserve">
<style type="text/css">
	.st0{fill:#FFFFFF;}
</style>
<g id="XMLID_10_">
	<line id="XMLID_103_" class="st0" x1="68.6" y1="111.3" x2="68.6" y2="111.3"/>
	<line id="XMLID_102_" class="st0" x1="4.4" y1="96.3" x2="4.4" y2="96.3"/>
	<line id="XMLID_101_" class="st0" x1="4.4" y1="64.2" x2="4.4" y2="64.2"/>
	<path id="XMLID_100_" class="st0" d="M9.4,97.4"/>
	<path id="XMLID_99_" class="st0" d="M12.6,90.8"/>
	<polygon id="XMLID_109_" class="st0" points="34.1,46 18.6,78.3 10.4,51.6 	"/>
	<polygon id="XMLID_98_" class="st0" points="14.9,99 4,96.5 4,64.1 12.3,90.8 	"/>
	<polygon id="XMLID_97_" class="st0" points="42,59.7 42,105.6 22.3,100.9 	"/>
	<polygon id="XMLID_96_" class="st0" points="146,56.3 146,93.2 132,96.5 132,64.1 124.2,90.8 121.9,99 113.8,100.9 94,59.7 
		94,105.6 68,111.7 68,37.8 94,43.9 102.9,46 118.5,78.3 126.7,51.6 132.8,53 135.6,53.8 	"/>
	<line id="XMLID_95_" class="st0" x1="68.6" y1="111.3" x2="68.6" y2="111.3"/>
	<path id="XMLID_94_" class="st0" d="M113.5,94.8"/>
</g>
</svg>
